HIERARCHY
ROOT Root
{
  OFFSET 0.0 0.0 0.0
  CHANNELS 6 Xposition Yposition Zposition Zrotation Yrotation Xrotation
  JOINT Hips
  {
    OFFSET 0.0 100.0 0.0
    CHANNELS 6 Xposition Yposition Zposition Zrotation Yrotation Xrotation
    JOINT Spine1
    {
      OFFSET -0.013727 5.003763 -0.053727
      CHANNELS 3 Zrotation Yrotation Xrotation
      JOINT Spine2
      {
        OFFSET -0.0 7.125301 -0.029825
        CHANNELS 3 Zrotation Yrotation Xrotation
        JOINT Chest
        {
          OFFSET -1e-06 7.550063 -0.815971
          CHANNELS 3 Zrotation Yrotation Xrotation
          JOINT Neck1
          {
            OFFSET -0.181677 26.311295 -0.553348
            CHANNELS 3 Zrotation Yrotation Xrotation
            JOINT Neck2
            {
              OFFSET -3e-06 7.709397 2.302585
              CHANNELS 3 Zrotation Yrotation Xrotation
              JOINT Head
              {
                OFFSET -5e-06 6.128916 1.953709
                CHANNELS 3 Zrotation Yrotation Xrotation
                JOINT HeadEnd
                {
                  OFFSET 0.003598 16.065403 -1.835379
                  CHANNELS 3 Zrotation Yrotation Xrotation
                }
                JOINT Jaw
                {
                  OFFSET 0.002637 0.475592 3.094941
                  CHANNELS 3 Zrotation Yrotation Xrotation
                }
                JOINT LeftEye
                {
                  OFFSET 3.206381 5.380205 7.586883
                  CHANNELS 3 Zrotation Yrotation Xrotation
                }
                JOINT RightEye
                {
                  OFFSET -3.22244 5.361869 7.558234
                  CHANNELS 3 Zrotation Yrotation Xrotation
                }
              }
            }
          }
          JOINT LeftShoulder
          {
            OFFSET 1.621652 23.237164 5.113413
            CHANNELS 3 Zrotation Yrotation Xrotation
            JOINT LeftArm
            {
              OFFSET 14.919846 2e-06 -5.502326
              CHANNELS 3 Zrotation Yrotation Xrotation
              JOINT LeftForeArm
              {
                OFFSET 28.739307 0.0 -0.002588
                CHANNELS 3 Zrotation Yrotation Xrotation
                JOINT LeftHand
                {
                  OFFSET 27.093981 -1e-06 0.002609
                  CHANNELS 3 Zrotation Yrotation Xrotation
                  JOINT LeftHandThumb1
                  {
                    OFFSET 2.276482 -1.392045 3.191413
                    CHANNELS 3 Zrotation Yrotation Xrotation
                    JOINT LeftHandThumb2
                    {
                      OFFSET 4.012836 -1.828127 1.641654
                      CHANNELS 3 Zrotation Yrotation Xrotation
                      JOINT LeftHandThumb3
                      {
                        OFFSET 2.798515 0.0 -3e-06
                        CHANNELS 3 Zrotation Yrotation Xrotation
                        JOINT LeftHandThumbEnd
                        {
                          OFFSET 3.180793 -4e-06 4e-06
                          CHANNELS 3 Zrotation Yrotation Xrotation
                        }
                      }
                    }
                  }
                  JOINT LeftHandIndex1
                  {
                    OFFSET 3.247555 -0.531998 2.296169
                    CHANNELS 3 Zrotation Yrotation Xrotation
                    JOINT LeftHandIndex2
                    {
                      OFFSET 6.364578 0.01206 0.1786
                      CHANNELS 3 Zrotation Yrotation Xrotation
                      JOINT LeftHandIndex3
                      {
                        OFFSET 3.662364 0.0 0.0
                        CHANNELS 3 Zrotation Yrotation Xrotation
                        JOINT LeftHandIndex4
                        {
                          OFFSET 2.329242 4e-06 4e-06
                          CHANNELS 3 Zrotation Yrotation Xrotation
                          JOINT LeftHandIndexEnd
                          {
                            OFFSET 2.759615 -0.180537 -0.113024
                            CHANNELS 3 Zrotation Yrotation Xrotation
                          }
                        }
                      }
                    }
                  }
                  JOINT LeftHandMiddle1
                  {
                    OFFSET 3.163495 0.240981 1.000332
                    CHANNELS 3 Zrotation Yrotation Xrotation
                    JOINT LeftHandMiddle2
                    {
                      OFFSET 6.19078 -0.259278 -1.002548
                      CHANNELS 3 Zrotation Yrotation Xrotation
                      JOINT LeftHandMiddle3
                      {
                        OFFSET 4.35652 -4e-06 -1e-06
                        CHANNELS 3 Zrotation Yrotation Xrotation
                        JOINT LeftHandMiddle4
                        {
                          OFFSET 2.996877 -8e-06 0.0
                          CHANNELS 3 Zrotation Yrotation Xrotation
                          JOINT LeftHandMiddleEnd
                          {
                            OFFSET 2.304287 -0.294569 -0.031741
                            CHANNELS 3 Zrotation Yrotation Xrotation
                          }
                        }
                      }
                    }
                  }
                  JOINT LeftHandRing1
                  {
                    OFFSET 2.882643 -0.053652 -0.322543
                    CHANNELS 3 Zrotation Yrotation Xrotation
                    JOINT LeftHandRing2
                    {
                      OFFSET 5.854541 -0.486202 -1.373841
                      CHANNELS 3 Zrotation Yrotation Xrotation
                      JOINT LeftHandRing3
                      {
                        OFFSET 4.350578 0.0 3e-06
                        CHANNELS 3 Zrotation Yrotation Xrotation
                        JOINT LeftHandRing4
                        {
                          OFFSET 2.651321 7e-06 2e-06
                          CHANNELS 3 Zrotation Yrotation Xrotation
                          JOINT LeftHandRingEnd
                          {
                            OFFSET 1.936105 0.077687 -7.1e-05
                            CHANNELS 3 Zrotation Yrotation Xrotation
                          }
                        }
                      }
                    }
                  }
                  JOINT LeftHandPinky1
                  {
                    OFFSET 2.8655 -0.310005 -1.600378
                    CHANNELS 3 Zrotation Yrotation Xrotation
                    JOINT LeftHandPinky2
                    {
                      OFFSET 5.087849 -1.331141 -1.77123
                      CHANNELS 3 Zrotation Yrotation Xrotation
                      JOINT LeftHandPinky3
                      {
                        OFFSET 3.070974 4e-06 0.0
                        CHANNELS 3 Zrotation Yrotation Xrotation
                        JOINT LeftHandPinky4
                        {
                          OFFSET 1.549672 0.0 1e-06
                          CHANNELS 3 Zrotation Yrotation Xrotation
                          JOINT LeftHandPinkyEnd
                          {
                            OFFSET 1.944893 -0.157802 0.057219
                            CHANNELS 3 Zrotation Yrotation Xrotation
                          }
                        }
                      }
                    }
                  }
                }
              }
            }
          }
          JOINT RightShoulder
          {
            OFFSET -1.380118 23.180309 5.214158
            CHANNELS 3 Zrotation Yrotation Xrotation
            JOINT RightArm
            {
              OFFSET -15.037196 1.2e-05 -5.545604
              CHANNELS 3 Zrotation Yrotation Xrotation
              JOINT RightForeArm
              {
                OFFSET -28.736639 2e-06 -0.002597
                CHANNELS 3 Zrotation Yrotation Xrotation
                JOINT RightHand
                {
                  OFFSET -27.133619 -0.0 0.002613
                  CHANNELS 3 Zrotation Yrotation Xrotation
                  JOINT RightHandThumb1
                  {
                    OFFSET -2.274032 -1.383988 3.163127
                    CHANNELS 3 Zrotation Yrotation Xrotation
                    JOINT RightHandThumb2
                    {
                      OFFSET -4.011429 -1.827466 1.640914
                      CHANNELS 3 Zrotation Yrotation Xrotation
                      JOINT RightHandThumb3
                      {
                        OFFSET -2.794935 -4e-06 -3e-06
                        CHANNELS 3 Zrotation Yrotation Xrotation
                        JOINT RightHandThumbEnd
                        {
                          OFFSET -3.183852 4e-06 1e-06
                          CHANNELS 3 Zrotation Yrotation Xrotation
                        }
                      }
                    }
                  }
                  JOINT RightHandIndex1
                  {
                    OFFSET -3.253266 -0.520057 2.282866
                    CHANNELS 3 Zrotation Yrotation Xrotation
                    JOINT RightHandIndex2
                    {
                      OFFSET -6.341917 0.012471 0.178266
                      CHANNELS 3 Zrotation Yrotation Xrotation
                      JOINT RightHandIndex3
                      {
                        OFFSET -3.654871 -8e-06 -0.0
                        CHANNELS 3 Zrotation Yrotation Xrotation
                        JOINT RightHandIndex4
                        {
                          OFFSET -2.327586 0.0 1e-06
                          CHANNELS 3 Zrotation Yrotation Xrotation
                          JOINT RightHandIndexEnd
                          {
                            OFFSET -2.76179 -0.180656 -0.113078
                            CHANNELS 3 Zrotation Yrotation Xrotation
                          }
                        }
                      }
                    }
                  }
                  JOINT RightHandMiddle1
                  {
                    OFFSET -3.168106 0.246593 1.00103
                    CHANNELS 3 Zrotation Yrotation Xrotation
                    JOINT RightHandMiddle2
                    {
                      OFFSET -6.180828 -0.258836 -1.000895
                      CHANNELS 3 Zrotation Yrotation Xrotation
                      JOINT RightHandMiddle3
                      {
                        OFFSET -4.348901 0.0 -0.0
                        CHANNELS 3 Zrotation Yrotation Xrotation
                        JOINT RightHandMiddle4
                        {
                          OFFSET -3.00024 -4e-06 -2e-06
                          CHANNELS 3 Zrotation Yrotation Xrotation
                          JOINT RightHandMiddleEnd
                          {
                            OFFSET -2.30252 -0.29437 -0.031706
                            CHANNELS 3 Zrotation Yrotation Xrotation
                          }
                        }
                      }
                    }
                  }
                  JOINT RightHandRing1
                  {
                    OFFSET -2.88569 -0.067952 -0.308858
                    CHANNELS 3 Zrotation Yrotation Xrotation
                    JOINT RightHandRing2
                    {
                      OFFSET -5.854198 -0.48613 -1.373731
                      CHANNELS 3 Zrotation Yrotation Xrotation
                      JOINT RightHandRing3
                      {
                        OFFSET -4.33881 -4e-06 -0.0
                        CHANNELS 3 Zrotation Yrotation Xrotation
                        JOINT RightHandRing4
                        {
                          OFFSET -2.654903 -4e-06 4e-06
                          CHANNELS 3 Zrotation Yrotation Xrotation
                          JOINT RightHandRingEnd
                          {
                            OFFSET -1.933568 0.077527 -5.2e-05
                            CHANNELS 3 Zrotation Yrotation Xrotation
                          }
                        }
                      }
                    }
                  }
                  JOINT RightHandPinky1
                  {
                    OFFSET -2.866425 -0.342796 -1.584145
                    CHANNELS 3 Zrotation Yrotation Xrotation
                    JOINT RightHandPinky2
                    {
                      OFFSET -5.091371 -1.332055 -1.772385
                      CHANNELS 3 Zrotation Yrotation Xrotation
                      JOINT RightHandPinky3
                      {
                        OFFSET -3.062664 -4e-06 1e-06
                        CHANNELS 3 Zrotation Yrotation Xrotation
                        JOINT RightHandPinky4
                        {
                          OFFSET -1.546529 4e-06 -2e-06
                          CHANNELS 3 Zrotation Yrotation Xrotation
                          JOINT RightHandPinkyEnd
                          {
                            OFFSET -1.945119 -0.157718 0.057211
                            CHANNELS 3 Zrotation Yrotation Xrotation
                          }
                        }
                      }
                    }
                  }
                }
              }
            }
          }
        }
      }
    }
    JOINT LeftLeg
    {
      OFFSET 10.043214 -8.434526 2.595655
      CHANNELS 3 Zrotation Yrotation Xrotation
      JOINT LeftShin
      {
        OFFSET -1e-06 -43.221752 -0.802913
        CHANNELS 3 Zrotation Yrotation Xrotation
        JOINT LeftFoot
        {
          OFFSET 1e-06 -42.155094 -3.481523
          CHANNELS 3 Zrotation Yrotation Xrotation
          JOINT LeftToeBase
          {
            OFFSET 0.0 -5.059472 13.231529
            CHANNELS 3 Zrotation Yrotation Xrotation
            JOINT LeftToeEnd
            {
              OFFSET -0.009607 -1.647619 6.513017
              CHANNELS 3 Zrotation Yrotation Xrotation
            }
          }
        }
      }
    }
    JOINT RightLeg
    {
      OFFSET -10.047278 -8.29526 2.620317
      CHANNELS 3 Zrotation Yrotation Xrotation
      JOINT RightShin
      {
        OFFSET 1e-06 -43.362206 -0.805556
        CHANNELS 3 Zrotation Yrotation Xrotation
        JOINT RightFoot
        {
          OFFSET 2e-06 -42.117393 -3.478398
          CHANNELS 3 Zrotation Yrotation Xrotation
          JOINT RightToeBase
          {
            OFFSET -0.0 -5.079609 13.284196
            CHANNELS 3 Zrotation Yrotation Xrotation
            JOINT RightToeEnd
            {
              OFFSET 0.009532 -1.634378 6.460591
              CHANNELS 3 Zrotation Yrotation Xrotation
            }
          }
        }
      }
    }
  }
}
MOTION
Frames: 4
Frame Time: 0.03333333333333333
0.0 0.0 0.0 0.0 -0.0 0.0 -0.344625 99.086838 -2.110225 -0.690162 1.628998 -5.57341 -0.239343 0.062457 -4.767262 -0.450643 0.790278 -7.004875 -1.43698 -1.229669 14.137182 6.202343 -1.062731 17.566769 -1.463634 -3.006274 -3.586965 0.254656 -4.831535 2.383748 7.7e-05 -2.3e-05 6e-06 -0.006065 0.012726 -0.031454 0.73993 -3.661021 -10.553815 -0.744666 3.672708 -10.510538 -11.179159 -1.727871 15.398744 -62.453899 -7.836047 15.564938 -0.201439 -26.836441 0.009069 -5.344183 -3.158981 -2.421468 -5.882109 9.861292 0.70259 -10.936874 -0.360575 7.156205 -0.0 8.774831 -1e-06 -16.097879 18.081028 6.173568 -1.844033 2.498506 -2.507279 -10.163604 4.678948 4.621109 -20.976032 -3e-06 0.0 -21.226299 2.451697 -3.594004 1e-06 -6e-06 1e-06 -1.362682 2.2408 -0.746324 -21.334923 0.58491 3.008321 -13.82122 -3e-06 0.0 -23.887178 -0.24908 -0.839485 -61.249386 2.804459 -1.170417 -0.294024 1.679688 0.833256 -14.218214 0.093216 1.300578 -34.212059 -0.287565 0.967167 -20.033216 0.964537 1.212844 0.0 -0.0 1e-06 -3.44039 0.788234 0.501656 -15.928192 -3.167312 2.999707 -6.338829 -2e-06 0.0 -18.123453 3.648184 -4.905674 -3e-06 0.0 -1e-06 6.622415 11.73829 12.524467 8.635938 53.244217 -27.495125 15.296518 83.89109 16.767511 -4.045109 -12.302933 -15.646061 2.243544 -5.255041 -3.180161 14.282896 -0.826596 6.952506 -0.0 -12.69061 -3e-06 15.091056 -17.199183 2.691552 1.665667 -1.955925 -2.878302 4.727801 -4.170592 4.993927 11.020534 2e-06 -3e-06 12.10906 -3.735719 -2.866789 1e-06 0.0 -1e-06 1.291987 -1.928552 -1.49809 14.800136 0.567466 3.865608 14.242583 -1.341741 -6.660666 19.631979 0.143923 -0.648249 49.235455 -0.71138 -6.180562 0.353031 -1.51115 -0.031939 20.222803 3.684307 2.316632 18.787287 1e-06 -2e-06 10.751635 -0.47987 1.397905 0.0 0.0 0.0 3.273809 0.305947 -0.580112 21.486824 11.830379 2.266136 8.162933 1e-06 -2e-06 18.399097 -3.79899 -4.940581 3e-06 -0.0 -0.0 9.585757 9.958025 7.815905 0.001386 -0.203259 6.527106 -8.059869 0.251924 -7.493671 1.65294 -1.916795 -0.98804 -0.0 0.0 2e-06 -1.722532 -0.673747 3.694755 -0.06177 0.201355 12.183336 6.174408 -15.240622 -10.904021 -1.421028 1.002365 -0.240375 -0.0 -0.0 -1e-06 
0.0 0.0 0.0 0.0 -0.0 0.0 -0.30295 99.079239 -2.081168 -0.650876 1.627503 -5.612567 -0.225853 0.093819 -4.740751 -0.428827 0.79439 -6.98061 -1.472754 -1.199049 14.12431 6.384339 -1.168025 17.4076 -1.433507 -2.942387 -3.606611 0.419389 -4.884768 2.029277 7.7e-05 -2.2e-05 6e-06 -0.006545 0.010211 -0.037616 0.739304 -3.661264 -10.561911 -0.744657 3.667427 -10.515498 -11.051075 -1.675582 15.340823 -62.591518 -7.653095 15.390947 -0.216475 -26.917543 0.001284 -5.205991 -3.184631 -1.811092 -5.882108 9.861288 0.70259 -10.936876 -0.360576 7.156203 1e-06 8.774828 -1e-06 -16.080912 18.072063 6.168738 -1.844033 2.498505 -2.507277 -10.163604 4.678945 4.621108 -20.97603 -4e-06 -0.0 -21.226292 2.451697 -3.594001 2e-06 -7e-06 -0.0 -1.362682 2.240798 -0.746323 -21.334923 0.584908 3.008319 -13.821218 -3e-06 1e-06 -23.887182 -0.249082 -0.839485 -61.212505 2.798398 -1.164516 -0.294025 1.679688 0.833255 -14.218215 0.093213 1.30058 -34.212063 -0.287568 0.967168 -20.03322 0.964534 1.212841 0.0 -0.0 1e-06 -3.44039 0.788234 0.501655 -15.928192 -3.167312 2.999704 -6.338829 -1e-06 -1e-06 -18.123453 3.648182 -4.905672 -3e-06 1e-06 -2e-06 6.513821 11.538387 12.515968 4.485791 54.143608 -31.82765 30.349421 86.493568 31.906683 -1.840605 -12.717006 -12.917502 2.243544 -5.255037 -3.18016 14.282897 -0.826599 6.952507 1e-06 -12.690604 -2e-06 15.191951 -17.361435 2.679794 1.665666 -1.955922 -2.878299 4.727802 -4.170589 4.993925 11.02053 2e-06 -1e-06 12.109058 -3.735717 -2.866786 0.0 -1e-06 -2e-06 1.291987 -1.92855 -1.498092 14.800138 0.567466 3.86561 14.24258 -1.341739 -6.660661 19.631975 0.143922 -0.648247 49.329773 -0.754948 -6.277894 0.353031 -1.51115 -0.031939 20.222803 3.684306 2.316631 18.787283 -0.0 -2e-06 10.751634 -0.479872 1.397905 -1e-06 0.0 1e-06 3.273809 0.305946 -0.58011 21.486824 11.830371 2.266135 8.16293 -0.0 -1e-06 18.399096 -3.798988 -4.94058 3e-06 0.0 -2e-06 9.50032 9.842693 7.90407 0.002137 -0.188602 6.472054 -8.084129 0.338914 -7.518117 1.649699 -1.936998 -0.975077 0.0 -0.0 2e-06 -1.76956 -0.561971 3.731379 -0.067501 0.191508 12.23994 6.216051 -15.267773 -10.963704 -1.419276 0.998781 -0.210571 -0.0 -0.0 -1e-06 
0.0 0.0 0.0 0.0 -0.0 0.0 -0.263517 99.066818 -2.054669 -0.602347 1.630306 -5.662001 -0.213802 0.118454 -4.703753 -0.407795 0.786847 -6.958533 -1.494754 -1.174325 14.122932 6.53498 -1.260291 17.280897 -1.408753 -2.872229 -3.620887 0.514537 -4.922465 1.671456 7.7e-05 -2.3e-05 6e-06 -0.006267 0.007444 -0.04079 0.737922 -3.662841 -10.566429 -0.74244 3.663063 -10.519341 -10.902161 -1.65423 15.301764 -62.778954 -7.454873 15.212113 -0.212575 -27.006788 -0.015361 -5.066294 -3.20743 -1.273743 -5.882109 9.861289 0.702591 -10.936877 -0.360575 7.156209 0.0 8.77483 0.0 -16.05191 18.05471 6.16024 -1.844033 2.498504 -2.507278 -10.163604 4.678946 4.621111 -20.976034 -4e-06 1e-06 -21.226295 2.451697 -3.593999 1e-06 -5e-06 -0.0 -1.362682 2.2408 -0.746323 -21.334925 0.58491 3.008324 -13.821223 -3e-06 1e-06 -23.887184 -0.249079 -0.839483 -61.164104 2.788907 -1.173579 -0.294025 1.679688 0.833256 -14.218217 0.093215 1.300581 -34.212067 -0.287564 0.967172 -20.033226 0.964536 1.212843 1e-06 0.0 0.0 -3.44039 0.788233 0.501656 -15.928194 -3.16731 2.999709 -6.33883 -1e-06 1e-06 -18.123457 3.648185 -4.90567 -3e-06 1e-06 -1e-06 6.379665 11.359263 12.479967 0.433681 54.843838 -36.086807 79.648544 88.135124 81.238823 0.209024 -13.070952 -10.374476 2.243545 -5.255038 -3.180159 14.2829 -0.826597 6.952508 -0.0 -12.690605 2e-06 15.329967 -17.540501 2.654201 1.665666 -1.955923 -2.878301 4.727802 -4.170589 4.993927 11.02053 3e-06 -1e-06 12.109056 -3.735717 -2.866785 0.0 -2e-06 0.0 1.291985 -1.92855 -1.49809 14.800138 0.567467 3.865612 14.242579 -1.341737 -6.660661 19.631975 0.143924 -0.648245 49.451443 -0.794337 -6.385198 0.35303 -1.511151 -0.03194 20.222801 3.684308 2.316634 18.787283 1e-06 -0.0 10.751634 -0.479871 1.397907 -1e-06 0.0 -0.0 3.273809 0.305948 -0.58011 21.486824 11.830376 2.266137 8.162931 0.0 1e-06 18.399094 -3.79899 -4.940577 3e-06 0.0 -1e-06 9.407208 9.729836 7.980046 0.004087 -0.172512 6.463861 -8.09388 0.4297 -7.563463 1.648977 -1.967582 -0.944178 0.0 0.0 2e-06 -1.831346 -0.467733 3.751478 -0.067481 0.184746 12.352262 6.290673 -15.26355 -11.058994 -1.416917 0.988301 -0.190033 -0.0 -0.0 -1e-06 
0.0 0.0 0.0 0.0 -0.0 0.0 -0.223926 99.057487 -2.025145 -0.564369 1.612797 -5.716344 -0.186481 0.139448 -4.659581 -0.382166 0.778549 -6.941255 -1.50795 -1.151057 14.136995 6.647946 -1.347844 17.1917 -1.38846 -2.778649 -3.635935 0.582174 -4.933985 1.331668 7.7e-05 -2.2e-05 6e-06 -0.006973 0.01051 -0.043861 0.73435 -3.658799 -10.566579 -0.740018 3.664838 -10.520678 -10.771801 -1.652547 15.304155 -62.961025 -7.256575 15.037973 -0.185587 -27.114176 -0.029874 -4.939526 -3.245893 -0.775595 -5.882111 9.861293 0.702591 -10.936881 -0.360575 7.156209 1e-06 8.774831 1e-06 -16.01869 18.036169 6.155865 -1.844034 2.498504 -2.507279 -10.163607 4.678948 4.621111 -20.976042 -4e-06 1e-06 -21.226305 2.451698 -3.594004 1e-06 -7e-06 -0.0 -1.362682 2.240799 -0.746324 -21.334932 0.58491 3.008323 -13.821225 -3e-06 1e-06 -23.88719 -0.249081 -0.839487 -61.111992 2.77287 -1.180326 -0.294025 1.679688 0.833256 -14.218221 0.093216 1.300581 -34.212078 -0.287566 0.967168 -20.033232 0.964535 1.212841 0.0 -0.0 0.0 -3.440392 0.788235 0.501657 -15.928201 -3.167311 2.999705 -6.338833 -2e-06 0.0 -18.123465 3.648184 -4.905678 -3e-06 1e-06 -1e-06 6.214633 11.199718 12.456225 -3.516648 55.36647 -40.21542 141.824219 87.174644 143.4608 2.083685 -13.366475 -8.100525 2.243541 -5.255038 -3.180159 14.282898 -0.826595 6.952507 -2e-06 -12.690605 0.0 15.503204 -17.699564 2.608886 1.665666 -1.955922 -2.8783 4.727801 -4.170588 4.993926 11.020534 3e-06 -1e-06 12.109058 -3.735717 -2.866786 -0.0 -2e-06 -0.0 1.291986 -1.928551 -1.49809 14.800136 0.567466 3.865609 14.24258 -1.341736 -6.660661 19.631975 0.143926 -0.648244 49.576893 -0.828176 -6.483358 0.35303 -1.51115 -0.03194 20.222801 3.684308 2.316633 18.787287 4e-06 0.0 10.751634 -0.479869 1.397907 -1e-06 -1e-06 -0.0 3.273809 0.305947 -0.58011 21.486824 11.830376 2.266134 8.16293 1e-06 -1e-06 18.399092 -3.798986 -4.940577 2e-06 -0.0 -0.0 9.331669 9.640664 8.088178 0.005089 -0.16273 6.413474 -8.088408 0.528285 -7.590897 1.648314 -1.9847 -0.91808 0.0 0.0 2e-06 -1.880613 -0.35157 3.799884 -0.061906 0.178481 12.414502 6.354783 -15.276369 -11.128654 -1.414841 0.97785 -0.169504 -0.0 -0.0 -1e-06 
